<svg width="26" height="26" viewBox="0 0 26 26" fill="none" xmlns="http://www.w3.org/2000/svg">
<g clip-path="url(#clip0_8500_68757)">
<path d="M22.1408 5.03366V22.7734C22.1408 24.1708 21.0079 25.3037 19.6104 25.3037H5.69346C4.29597 25.3037 3.16309 24.1708 3.16309 22.7734V2.53037C3.16309 1.13289 4.29597 0 5.69346 0H16.6605L22.1408 5.03366Z" fill="#F04438"/>
<path d="M16.2621 17.057C15.6307 17.057 14.8405 17.1671 14.582 17.2059C13.5121 16.0886 13.2077 15.4535 13.1393 15.2842C13.2321 15.0458 13.5549 14.1401 13.6008 12.9769C13.6234 12.3946 13.5004 11.9594 13.235 11.6835C12.9701 11.4081 12.6495 11.3867 12.5576 11.3867C12.2352 11.3867 11.6944 11.5497 11.6944 12.6414C11.6944 13.5886 12.136 14.5937 12.2581 14.8534C11.6149 16.7262 10.9244 18.0082 10.7778 18.2718C8.19331 19.2449 7.99121 20.1857 7.99121 20.4524C7.99121 20.9315 8.33247 21.2176 8.90407 21.2176C10.2928 21.2176 11.5602 18.886 11.7697 18.4812C12.7561 18.0882 14.0763 17.8447 14.4119 17.7866C15.3745 18.7036 16.4878 18.9483 16.9502 18.9483C17.298 18.9483 18.1127 18.9483 18.1127 18.1108C18.1127 17.333 17.1158 17.057 16.2621 17.057ZM16.1951 17.6069C16.9453 17.6069 17.1435 17.8549 17.1435 17.9861C17.1435 18.0684 17.1123 18.337 16.7102 18.337C16.3496 18.337 15.7271 18.1286 15.1147 17.6764C15.3701 17.6429 15.748 17.6069 16.1951 17.6069ZM12.5182 11.9197C12.5866 11.9197 12.6316 11.9417 12.6687 11.9932C12.8845 12.2925 12.7105 13.2707 12.4988 14.0362C12.2944 13.3798 12.141 12.3727 12.3568 12.0184C12.399 11.9492 12.4472 11.9197 12.5182 11.9197ZM12.1539 17.7788C12.4255 17.2302 12.7299 16.4306 12.8957 15.9783C13.2275 16.5337 13.6737 17.0493 13.9318 17.3289C13.1282 17.4983 12.5202 17.6675 12.1539 17.7788ZM8.53069 20.5256C8.51279 20.5044 8.51015 20.4596 8.52363 20.4059C8.55191 20.2934 8.76799 19.7355 10.3308 19.0364C10.1071 19.3889 9.75722 19.8925 9.37289 20.2688C9.10235 20.522 8.8917 20.6504 8.74676 20.6504C8.69492 20.6504 8.62348 20.6363 8.53069 20.5256Z" fill="white"/>
<g filter="url(#filter0_d_8500_68757)">
<path d="M22.1404 5.03366H17.2927C16.9434 5.03366 16.6602 4.75044 16.6602 4.40107V0L22.1404 5.03366Z" fill="#FECDCA"/>
</g>
</g>
<defs>
<filter id="filter0_d_8500_68757" x="14.7624" y="-0.632593" width="8.01084" height="7.56406" filterUnits="userSpaceOnUse" color-interpolation-filters="sRGB">
<feFlood flood-opacity="0" result="BackgroundImageFix"/>
<feColorMatrix in="SourceAlpha" type="matrix" values="0 0 0 0 0 0 0 0 0 0 0 0 0 0 0 0 0 0 127 0" result="hardAlpha"/>
<feOffset dx="-0.632593" dy="0.632593"/>
<feGaussianBlur stdDeviation="0.632593"/>
<feComposite in2="hardAlpha" operator="out"/>
<feColorMatrix type="matrix" values="0 0 0 0 0 0 0 0 0 0 0 0 0 0 0 0 0 0 0.2 0"/>
<feBlend mode="normal" in2="BackgroundImageFix" result="effect1_dropShadow_8500_68757"/>
<feBlend mode="normal" in="SourceGraphic" in2="effect1_dropShadow_8500_68757" result="shape"/>
</filter>
<clipPath id="clip0_8500_68757">
<rect width="25.3037" height="25.3037" fill="white"/>
</clipPath>
</defs>
</svg>
