<svg width="20" height="20" viewBox="0 0 20 20" fill="none" xmlns="http://www.w3.org/2000/svg">
<path fill-rule="evenodd" clip-rule="evenodd" d="M9.99876 3.33319C8.61804 3.33319 7.49874 4.45249 7.49874 5.83321C7.49874 7.21394 8.61804 8.33324 9.99876 8.33324C11.3795 8.33324 12.4988 7.21394 12.4988 5.83321C12.4988 4.45249 11.3795 3.33319 9.99876 3.33319ZM5.83206 5.83321C5.83206 3.532 7.69755 1.6665 9.99876 1.6665C12.3 1.6665 14.1655 3.532 14.1655 5.83321C14.1655 8.13442 12.3 9.99992 9.99876 9.99992C7.69755 9.99992 5.83206 8.13442 5.83206 5.83321ZM4.55243 12.887C5.33384 12.1056 6.39366 11.6666 7.49874 11.6666H12.4988C13.6039 11.6666 14.6637 12.1056 15.4451 12.887C16.2265 13.6684 16.6655 14.7282 16.6655 15.8333V17.5C16.6655 17.9602 16.2924 18.3333 15.8322 18.3333C15.3719 18.3333 14.9988 17.9602 14.9988 17.5V15.8333C14.9988 15.1703 14.7354 14.5344 14.2666 14.0655C13.7977 13.5967 13.1618 13.3333 12.4988 13.3333H7.49874C6.83569 13.3333 6.1998 13.5967 5.73095 14.0655C5.26211 14.5344 4.99871 15.1703 4.99871 15.8333V17.5C4.99871 17.9602 4.62561 18.3333 4.16537 18.3333C3.70513 18.3333 3.33203 17.9602 3.33203 17.5V15.8333C3.33203 14.7282 3.77102 13.6684 4.55243 12.887Z" fill="white"/>
</svg>
