<svg width="232" height="236" viewBox="0 0 232 236" fill="none" xmlns="http://www.w3.org/2000/svg">
<g filter="url(#filter0_i_8500_129761)">
<path d="M213.053 0.373047C217.27 0.369449 221.442 1.11082 224.852 3.21875C225.781 3.59799 226.59 4.18104 227.456 5.00195C228.322 6.06354 229.014 7.14545 229.563 8.25488C230.528 10.0463 231.085 12.0409 231.301 14.2383C231.393 15.5501 231.396 16.8594 231.318 18.1641C231.317 18.1908 231.314 18.2174 231.312 18.2441C231.309 18.3194 231.308 18.3951 231.304 18.4707C231.296 18.5455 231.287 18.619 231.279 18.6914C231.273 18.7763 231.269 18.8614 231.262 18.9463C231.203 19.642 231.118 20.3358 231.016 21.0283C230.96 21.4546 230.904 21.8032 230.843 22.0957C230.798 22.3436 230.752 22.5915 230.702 22.8389C228.094 35.7864 218.368 48.043 210.121 57.668L210.139 57.7207C209.393 58.7547 209.393 58.7547 208.6 59.6445C208.552 59.6288 208.505 59.6124 208.458 59.5967C208.249 59.8359 208.039 60.0747 207.829 60.3135V60.415C207.796 60.4192 207.762 60.4226 207.729 60.4268C206.315 62.0344 204.885 63.6313 203.406 65.1797C202.688 65.961 202.181 66.499 201.785 66.8838C201.695 66.9833 201.591 67.0943 201.474 67.2207C201.306 67.3758 201.138 67.5302 200.969 67.6865C200.439 68.2498 199.923 68.823 199.41 69.4102C197.785 71.2248 196.097 72.9706 194.383 74.7012C194.128 74.9611 193.873 75.2214 193.61 75.4893C193.37 75.7301 193.13 75.9715 192.882 76.2197C192.666 76.437 192.45 76.654 192.228 76.8779C191.665 77.3466 191.665 77.3467 190.896 77.3467C190.805 77.5664 190.715 77.7863 190.622 78.0127C190.499 78.2298 190.367 78.4266 190.233 78.6133C190.202 78.6926 190.166 78.7824 190.125 78.8857H190.029C189.547 79.492 188.997 79.9779 188.347 80.5449C187.999 80.8499 187.651 81.1555 187.293 81.4697C186.958 81.7598 186.623 82.0498 186.278 82.3486C186.027 82.5714 185.775 82.7949 185.516 83.0244C184.749 83.7031 183.975 84.3738 183.199 85.043C182.845 85.3504 182.491 85.6579 182.126 85.9746C181.59 86.4362 181.05 86.8912 180.508 87.3438C180.508 87.346 180.509 87.3483 180.509 87.3506C179.792 88.0661 179.791 88.0664 178.849 88.7939C178.541 89.0379 178.232 89.2818 177.915 89.5332C177.799 89.6011 177.684 89.6681 177.567 89.7363C176.535 90.5571 175.496 91.3684 174.447 92.1699C174.345 92.2781 174.235 92.381 174.118 92.4814C173.903 92.6804 173.662 92.8766 173.383 93.0811C173.103 93.2879 172.822 93.4949 172.533 93.708C172.227 93.9277 171.922 94.1477 171.606 94.374C171.29 94.6039 170.972 94.8335 170.646 95.0703C170.08 95.4767 169.512 95.8791 168.944 96.2812C165.933 98.4718 162.862 100.579 159.743 102.612C159.607 102.728 159.432 102.858 159.196 103.032C159.061 103.097 158.943 103.152 158.839 103.199C158.112 103.668 157.383 104.134 156.651 104.596V104.668C155.86 105.248 155.08 105.768 154.246 106.279C154.02 106.426 153.795 106.573 153.562 106.724C152.442 107.417 152.055 107.654 151.627 107.684C150.419 108.407 149.206 109.121 147.987 109.826C147.195 110.467 146.317 110.973 145.349 111.36C145.124 111.492 144.9 111.622 144.676 111.754C137.755 115.781 130.551 119.247 123.138 122.159C122.637 122.503 122.022 122.649 121.298 122.909C121.192 122.939 121.087 122.962 120.983 122.986C115.831 124.925 110.582 126.598 105.26 128.006C105.327 128.05 105.396 128.094 105.466 128.141C104.441 128.391 103.414 128.634 102.388 128.88V128.91C101.923 129.048 101.477 129.142 101.033 129.205C100.875 129.243 100.717 129.282 100.56 129.319C99.8637 129.489 99.8633 129.489 99.1533 129.662C98.4837 129.82 98.483 129.821 97.7998 129.982C97.3889 130.081 96.978 130.18 96.5547 130.281C95.991 130.368 95.5577 130.398 95.124 130.354C92.9656 130.784 90.7976 131.169 88.6221 131.515C88.5964 131.543 88.5676 131.572 88.5381 131.604C82.8626 132.705 76.9808 132.615 71.2227 132.759C70.1823 134.64 69.2085 136.6 68.3203 138.617C68.2955 138.733 68.2681 138.856 68.2373 138.987C68.0786 139.344 67.9194 139.701 67.7559 140.069C67.7351 140.076 67.7142 140.083 67.6934 140.09C66.6038 142.726 65.6648 145.451 64.9229 148.228C64.8425 148.71 64.7621 149.195 64.6797 149.689L64.5771 149.587C64.4595 150.072 64.3493 150.558 64.2441 151.046C64.1887 151.74 64.0896 152.436 63.9102 153.153H63.8281C62.7187 159.449 62.7115 165.88 64.2959 172.009C64.4027 172.359 64.5174 172.705 64.6396 173.048C65.7576 176.169 67.4959 178.82 69.8916 180.917C71.6102 182.149 73.3537 183.243 75.2783 184.135C78.4434 185.313 81.5717 185.616 85.0977 185.598C85.7294 185.595 85.7298 185.595 86.374 185.593C86.9393 185.585 87.5348 185.573 88.1514 185.555C90.2644 185.36 92.4295 185.007 96.6191 184.322C97.329 184.149 97.3295 184.15 98.0537 183.973C99.8446 183.482 101.259 183.062 102.487 182C103.086 181.081 103.419 180.109 103.81 179.056C104.563 177.096 105.41 175.198 106.319 173.325C106.543 172.743 106.811 172.16 107.128 171.553C107.263 171.29 107.398 171.027 107.537 170.756C111.617 162.947 116.547 155.651 122.055 148.8C123.626 146.792 125.237 144.845 126.954 142.96C127.52 142.281 128.053 141.594 128.554 140.844C128.554 140.842 128.556 140.841 128.557 140.84H129.327V140.07L129.473 140.507C129.523 140.392 129.574 140.275 129.626 140.157C129.968 139.534 130.334 139.062 130.769 138.6C131.039 138.162 131.382 137.752 131.802 137.28C132.039 137.008 132.277 136.736 132.521 136.456C132.787 136.204 132.946 136.056 133.091 135.968C133.117 135.926 133.146 135.882 133.175 135.837H133.942C133.947 135.826 133.951 135.815 133.956 135.805C134.062 135.53 134.067 135.52 134.184 135.219C134.307 135.005 134.438 134.8 134.575 134.603C134.734 134.361 134.9 134.144 135.082 133.935C135.677 133.21 136.353 132.562 137.038 131.886C137.269 131.655 137.5 131.424 137.737 131.187C138.226 130.699 138.716 130.212 139.206 129.727C139.948 128.992 140.687 128.253 141.426 127.515C143.742 125.206 146.069 122.943 148.567 120.83C149.186 120.27 149.803 119.709 150.419 119.146C150.926 118.689 151.438 118.241 151.953 117.796C152.733 117.119 153.528 116.454 154.332 115.794C154.731 115.467 155.13 115.14 155.532 114.815C156.505 114.02 157.461 113.208 158.413 112.388C158.592 112.234 158.773 112.083 158.953 111.931C159.131 111.78 159.309 111.628 159.488 111.479C159.516 111.455 159.543 111.431 159.57 111.408C160.182 110.694 160.912 110.053 161.694 109.666C161.719 109.649 161.744 109.633 161.768 109.617C164.003 107.835 166.297 106.127 168.62 104.459C168.82 104.314 169.02 104.17 169.221 104.025C169.84 103.41 169.944 103.343 170.885 102.744L170.99 102.771C171.209 102.618 171.428 102.465 171.647 102.313C172.314 101.848 172.982 101.384 173.65 100.922C174.108 100.603 174.563 100.279 175.012 99.9482C175.622 99.5093 175.623 99.5088 176.66 98.8955L176.774 98.9336C177.454 98.5054 178.137 98.0799 178.825 97.6621C179.624 97.0882 180.483 96.6157 181.386 96.1309C181.843 95.8561 182.3 95.5807 182.756 95.3037C183.197 95.0408 183.646 94.778 184.102 94.5156C191.449 90.2755 200.906 85.9833 209.73 85.9316C210.716 85.8714 211.676 85.936 212.746 86.0811C213.72 86.1724 214.686 86.3174 215.64 86.5234C215.967 86.6255 216.285 86.7356 216.595 86.8535C218.036 87.3258 219.292 88.1207 220.399 89.1191C220.824 89.4586 221.239 89.8829 221.684 90.4297C221.691 90.4441 221.696 90.4592 221.703 90.4736C222.873 92.8043 222.836 95.447 222.287 97.958C222.266 98.0558 222.244 98.1535 222.222 98.251C222.156 100.292 221.729 100.937 220.529 102.743C220.517 102.747 220.504 102.751 220.491 102.755C219.717 104.311 218.842 105.805 217.895 107.255C217.876 107.294 217.857 107.335 217.836 107.378C217.653 107.65 217.47 107.923 217.281 108.203C217.099 108.478 216.917 108.754 216.729 109.037C216.586 109.246 216.443 109.455 216.295 109.67L216.239 109.651C215.248 111.014 214.201 112.341 213.124 113.646C212.74 114.222 212.701 114.266 212.081 114.937C211.93 115.103 211.778 115.269 211.625 115.438C210.932 116.27 210.26 117.12 209.586 117.968C209.011 118.67 208.42 119.357 207.82 120.037C207.823 120.045 207.826 120.052 207.828 120.06C207.288 120.931 206.598 121.607 205.904 122.368L205.752 122.317C204.9 123.235 204.038 124.145 203.176 125.056C202.421 125.855 201.671 126.658 200.922 127.462C194.621 134.22 194.62 134.22 191.193 137.168C190.948 137.382 190.708 137.601 190.471 137.822C190.027 138.242 189.595 138.67 189.164 139.108C189.151 139.122 189.137 139.134 189.124 139.147C189.074 139.199 189.024 139.249 188.975 139.301C188.973 139.3 188.972 139.299 188.971 139.299C188.558 139.712 188.139 140.116 187.713 140.513C187.645 140.631 187.534 140.749 187.348 140.943C187.32 140.966 187.295 140.987 187.271 141.007C187.253 141.025 187.235 141.046 187.216 141.065C186.597 141.589 185.976 142.11 185.355 142.631C184.679 143.213 184.006 143.801 183.341 144.398C182.836 144.848 182.33 145.297 181.825 145.746C181.585 145.964 181.345 146.183 181.098 146.407C180.624 146.825 180.166 147.188 179.704 147.513C178.997 148.125 178.292 148.739 177.586 149.353C177.397 149.516 177.207 149.678 177.018 149.841C176.777 150.048 176.536 150.254 176.295 150.46C175.607 151.045 174.915 151.625 174.22 152.2C172.729 153.566 172.568 153.679 171.654 154.308C171.648 154.305 171.641 154.303 171.635 154.301C171.502 154.407 171.369 154.513 171.235 154.619C171.248 154.644 171.26 154.668 171.272 154.692C171.21 154.708 171.148 154.723 171.086 154.738C170.377 155.301 169.665 155.861 168.947 156.416C168.762 156.56 168.578 156.705 168.394 156.85C167.776 157.332 167.158 157.816 166.543 158.302C166.353 158.452 166.161 158.6 165.97 158.749C165.912 158.794 165.854 158.839 165.797 158.884L165.881 158.926C165.184 159.527 165.183 159.527 164.342 160.08C164.326 160.075 164.31 160.069 164.294 160.063C164.118 160.203 163.941 160.344 163.76 160.486C162.331 161.603 160.882 162.688 159.397 163.729C159.385 163.737 159.374 163.745 159.362 163.753C158.054 164.709 156.737 165.654 155.406 166.581C155.321 166.663 155.231 166.74 155.134 166.815C154.228 167.691 153.008 168.298 151.91 169.026C151.539 169.281 151.168 169.536 150.786 169.799C150.428 170.038 150.071 170.277 149.702 170.523C149.374 170.744 149.046 170.964 148.708 171.191C148.365 171.354 148.151 171.455 147.971 171.512C144.687 173.576 141.336 175.529 137.914 177.343C137.484 177.608 137.061 177.885 136.641 178.165C136.558 178.151 136.483 178.137 136.415 178.125C135.061 178.823 133.696 179.5 132.319 180.151C131.685 180.452 131.054 180.759 130.424 181.067C129.064 181.695 127.674 182.244 126.266 182.745C126.259 182.758 126.253 182.771 126.247 182.784C126.186 182.795 126.128 182.805 126.074 182.814C123.964 183.558 121.812 184.19 119.654 184.798C118.442 185.257 117.166 185.54 115.861 185.862C115.838 187.435 115.825 188.451 115.835 189.303C115.956 191.646 116.446 193.734 117.746 195.963C117.815 196.027 117.884 196.094 117.952 196.167C118.107 196.334 118.263 196.526 118.431 196.757C119.49 197.988 120.573 198.557 122.006 199.287C122.151 199.367 122.269 199.433 122.37 199.491C124.385 200.367 126.568 200.792 128.822 200.946C129.862 200.965 130.901 200.947 131.947 200.918C132.783 200.901 133.62 200.886 134.456 200.873C134.82 200.864 135.185 200.854 135.56 200.845C135.607 200.846 135.655 200.848 135.702 200.85C137.742 200.673 139.727 200.349 141.768 199.87C142.188 199.742 142.651 199.643 143.183 199.523C144.428 199.19 144.432 199.188 145.48 198.566C145.483 198.564 145.486 198.563 145.488 198.561C145.798 197.802 146.052 197.051 146.282 196.284C146.201 195.338 146.322 195.063 146.646 194.328C146.722 194.29 146.798 194.251 146.874 194.213C149.388 185.791 154.772 178.474 160.111 171.624C160.399 171.254 160.687 170.884 160.983 170.502C161.615 169.71 162.261 168.932 162.92 168.166C163.022 167.945 163.213 167.753 163.574 167.392H163.577C163.582 167.393 163.588 167.395 163.593 167.396C163.999 166.934 164.408 166.474 164.822 166.019C165.124 165.582 165.484 165.163 165.885 164.697L166.002 164.736C166.654 164.036 167.314 163.343 167.976 162.65C168.301 162.305 168.629 161.962 168.959 161.619C169.246 161.321 169.534 161.022 169.83 160.715C171.523 158.967 173.215 157.247 174.973 155.602C175.277 155.299 175.582 154.995 175.888 154.692C175.905 154.698 175.924 154.704 175.941 154.71C176.063 154.6 176.184 154.488 176.307 154.379C176.295 154.355 176.283 154.331 176.271 154.308C176.634 154.024 176.996 153.741 177.369 153.449C177.377 153.443 177.385 153.436 177.394 153.43C178.4 152.566 179.435 151.73 180.511 150.932C181.218 150.403 181.916 149.867 182.594 149.31C183.126 148.849 183.725 148.303 184.723 147.394C184.727 147.389 184.732 147.385 184.736 147.381C185.636 146.822 186.553 146.294 187.473 145.769C187.87 145.542 188.267 145.314 188.664 145.087C188.736 145.045 188.809 145.002 188.881 144.96C189.471 144.615 190.056 144.262 190.641 143.907C191.036 143.671 191.453 143.428 191.885 143.181C192.012 143.106 192.139 143.031 192.266 142.956C192.495 142.817 192.724 142.677 192.96 142.533C193.538 142.195 194.139 141.898 194.742 141.608C194.754 141.612 194.767 141.616 194.779 141.62C200.263 138.87 207.195 136.631 212.058 140.07C212.149 140.189 212.238 140.307 212.323 140.424C212.639 140.752 212.921 141.14 213.214 141.609V141.722C213.34 141.927 213.468 142.146 213.6 142.379C213.706 142.697 213.789 143.01 213.854 143.317C213.861 143.354 213.869 143.39 213.876 143.427C213.882 143.457 213.887 143.487 213.893 143.518C213.937 143.752 213.971 143.985 213.994 144.22C214.073 144.839 214.072 145.498 213.981 146.227C213.957 146.33 213.929 146.434 213.902 146.537C213.83 146.947 213.73 147.357 213.599 147.767H213.54C213.529 147.799 213.519 147.832 213.508 147.864C213.318 148.447 213.085 149.03 212.824 149.623C212.826 149.645 212.83 149.667 212.832 149.689C212.645 150.103 212.439 150.493 212.221 150.874C210.788 153.643 208.809 156.148 206.695 158.425C206.505 158.632 206.313 158.838 206.117 159.043C205.361 159.841 204.64 160.648 203.924 161.481C203.435 162.042 202.935 162.591 202.43 163.134C202.432 163.142 202.436 163.15 202.438 163.158C202.278 163.318 202.118 163.478 201.958 163.638C201.073 164.573 200.171 165.491 199.258 166.405C198.965 166.7 198.671 166.994 198.369 167.298C197.755 167.914 197.14 168.53 196.524 169.146C195.579 170.091 194.637 171.04 193.695 171.989C193.096 172.589 192.498 173.189 191.898 173.789C191.616 174.074 191.334 174.359 191.043 174.652C190.782 174.912 190.522 175.172 190.253 175.439C190.023 175.669 189.794 175.9 189.558 176.137C188.972 176.627 188.972 176.627 188.202 176.627L187.817 177.781C187.242 178.361 187.241 178.361 186.494 178.983C185.643 179.705 184.803 180.435 183.969 181.174V181.244C183.263 181.912 183.116 182.049 182.569 182.426C180.996 183.842 179.411 185.243 177.812 186.631V186.633C177.939 186.886 178.067 187.14 178.197 187.401C177.798 187.433 177.797 187.433 177.39 187.465C175.878 187.9 174.933 188.817 173.796 189.854C173.315 190.279 172.834 190.703 172.352 191.126C172.107 191.341 171.863 191.555 171.611 191.776C170.514 192.725 169.383 193.627 168.24 194.521C167.916 194.777 167.916 194.777 167.586 195.038C166.348 196.008 165.087 196.928 163.791 197.819C163.507 198.019 163.223 198.22 162.93 198.426C162.378 198.812 161.821 199.19 161.257 199.558C159.856 200.521 159.856 200.521 159.151 202.005C159.08 204.895 160.161 207.633 161.818 209.952C162.173 210.205 162.47 210.526 162.897 211.019C163.106 211.252 163.314 211.485 163.528 211.725C163.665 211.945 163.802 212.165 163.942 212.392C166.584 214.9 169.764 216.651 173.183 217.776C173.315 217.82 173.448 217.862 173.581 217.903C174.468 218.181 175.37 218.418 176.282 218.615C176.49 218.66 176.698 218.704 176.907 218.745C177.321 218.826 177.737 218.9 178.154 218.966C178.438 219.011 178.723 219.051 179.008 219.089C179.56 219.162 180.113 219.223 180.667 219.271C181.044 219.303 181.422 219.33 181.8 219.351C182.052 219.365 182.304 219.376 182.557 219.385C183.541 219.387 184.522 219.376 185.506 219.34L185.505 219.341C185.506 219.341 185.508 219.341 185.509 219.341C185.509 220.495 185.509 220.495 185.124 221.265H184.354C184.269 221.472 184.182 221.68 184.094 221.895C184.032 222.004 183.966 222.11 183.901 222.216L183.969 222.418C183.428 223.289 182.739 223.965 182.045 224.727L181.919 224.685C181.809 224.802 181.699 224.921 181.588 225.04C181.498 225.136 181.408 225.232 181.317 225.329C181.303 225.384 181.289 225.44 181.273 225.497C181.227 225.507 181.18 225.516 181.133 225.526C181.091 225.571 181.049 225.618 181.007 225.663C180.835 225.847 180.661 226.029 180.488 226.213C180.494 226.231 180.501 226.249 180.507 226.267C180.16 226.613 179.813 226.959 179.466 227.307C179.189 227.604 178.911 227.901 178.636 228.2C176.667 230.276 174.382 231.948 172.04 233.578C171.761 233.773 171.482 233.968 171.194 234.168C169.912 234.938 168.963 235.185 167.559 235.021C167.512 235.015 167.464 235.009 167.416 235.003C167.347 234.994 167.277 234.985 167.206 234.974C167.095 234.944 166.985 234.913 166.874 234.883C166.6 234.808 166.327 234.731 166.056 234.651C165.866 234.596 165.677 234.538 165.488 234.479C164.116 234.054 162.77 233.557 161.466 232.983C161.272 232.925 161.078 232.867 160.883 232.809V232.721C160.319 232.461 159.764 232.185 159.218 231.896C159.019 231.817 158.819 231.735 158.622 231.646C158.605 231.649 158.587 231.652 158.569 231.654C158.371 231.548 158.216 231.463 158.084 231.39C155.732 230.217 153.534 228.376 151.69 226.366C151.602 226.301 151.502 226.221 151.38 226.122C151.165 225.856 151.043 225.702 150.973 225.555C150.147 224.587 149.406 223.597 148.772 222.636C148.711 222.533 148.65 222.432 148.591 222.334C148.454 222.121 148.32 221.898 148.188 221.664C148.186 221.659 148.183 221.654 148.18 221.649C148.172 221.636 148.165 221.623 148.157 221.609C146.332 218.559 146.26 218.302 146.257 216.837L146.256 216.646H145.102C145.173 216.432 145.244 216.218 145.317 215.997C145.468 215.203 145.396 214.61 145.257 213.919L145.105 213.201V215.107C144.336 213.617 144.336 213.616 144.336 213.184H145.1V212.976C145.089 212.208 145.087 211.441 145.1 210.674V210.489L144.33 210.104H144.332C144.459 209.724 144.583 209.342 144.714 208.95C144.56 208.976 144.409 209.005 144.261 209.034C144.094 209.067 143.93 209.102 143.77 209.14C143.465 209.211 143.169 209.291 142.877 209.383C142.814 209.403 142.751 209.423 142.688 209.444C142.636 209.462 142.583 209.479 142.53 209.497C141.457 209.896 140.445 210.441 139.38 210.971C138.969 211.169 138.559 211.362 138.15 211.552C137.913 211.669 137.687 211.781 137.47 211.888C137.342 211.951 137.217 212.013 137.096 212.072C135.225 212.988 134.103 213.506 133.246 213.781C133.103 213.827 132.968 213.865 132.838 213.898C132.577 213.965 132.338 214.007 132.101 214.03C132.05 214.035 132 214.036 131.949 214.039C131.215 214.282 130.472 214.513 129.712 214.723C129.443 214.798 129.173 214.873 128.896 214.95C124.311 216.183 118.658 217.132 113.592 216.371C113.243 216.368 112.924 216.357 112.627 216.336C112.623 216.336 112.62 216.335 112.616 216.335C112.576 216.332 112.536 216.329 112.497 216.326C109.83 216.142 108.698 215.277 105.976 213.188C105.807 213.043 105.644 212.895 105.484 212.748C103.73 211.238 102.369 209.515 101.401 207.465C101.348 207.447 101.293 207.429 101.239 207.411C100.895 206.723 100.688 206.02 100.565 205.307C100.43 204.87 100.31 204.419 100.204 203.954C100.116 203.479 100.045 203.009 99.9854 202.543C99.8209 201.593 99.7037 200.596 99.623 199.544C99.5913 198.406 99.6901 197.32 99.8711 196.24C99.9956 194.605 100.214 192.957 100.466 191.25C100.084 191.363 100.084 191.363 99.6943 191.479C98.0159 191.97 96.3206 192.432 94.6152 192.856C88.0328 194.672 81.0516 195.672 74.2715 195.103C74.1525 195.101 74.0332 195.1 73.9141 195.098C73.9255 195.09 73.9368 195.082 73.9482 195.074C70.5244 194.761 67.155 194.044 63.917 192.826C63.9079 192.823 63.8987 192.82 63.8896 192.816C63.77 192.772 63.6506 192.726 63.5312 192.681C62.8471 192.418 62.1676 192.135 61.4951 191.828C61.2876 191.723 61.0836 191.616 60.8818 191.509C60.6563 191.401 60.4307 191.291 60.2061 191.178C60.0973 191.117 59.9897 191.054 59.8828 190.992C58.5666 190.312 57.9725 189.949 57.6133 189.504C56.4891 188.675 55.4479 187.761 54.4189 186.755C54.2474 186.588 54.0752 186.42 53.9043 186.247C53.6926 186.048 53.4808 185.849 53.2627 185.645C48.6278 180.885 47.163 173.805 47.2275 167.405C47.2625 166.264 47.3357 165.13 47.4443 164.003C47.5168 163.252 47.6052 162.504 47.708 161.759C47.7594 161.386 47.8144 161.015 47.873 160.644C48.0217 159.703 48.1952 158.768 48.3877 157.838C48.5195 157.031 48.6891 156.253 48.9033 155.462L48.9209 155.479C48.9491 155.365 48.9761 155.25 49.0049 155.136C49.279 154.045 49.5798 152.961 49.9043 151.883C51.6348 146.134 54.0377 140.561 56.6318 135.125C56.9561 134.445 57.283 133.767 57.6123 133.092C57.8191 132.733 57.9489 132.509 58.0283 132.341C58.055 132.284 58.0763 132.234 58.0928 132.188C58.1581 132.002 58.1514 131.869 58.1377 131.604C57.4533 131.465 57.4527 131.465 56.7549 131.322C56.0709 131.181 55.3872 131.037 54.7041 130.894C53.4077 130.69 52.1309 130.42 50.8281 130.064V130.047C50.4467 129.96 50.0646 129.877 49.6836 129.788C48.9009 129.606 48.1192 129.418 47.3389 129.224C47.0805 129.16 46.8219 129.095 46.5557 129.029C45.6251 128.793 44.7608 128.572 43.8994 128.142C43.2668 127.852 42.6329 127.563 41.999 127.275C41.4258 127.014 41.4256 127.014 40.8408 126.748C40.4176 126.557 39.9927 126.368 39.5684 126.18C39.3303 126.089 39.0637 125.999 38.5938 125.843C38.3135 125.712 38.0329 125.582 37.7441 125.447C37.7329 125.414 37.7212 125.38 37.71 125.347C37.5302 125.264 37.3507 125.181 37.1719 125.098C36.6836 124.869 36.1987 124.635 35.7178 124.396C35.7033 124.389 35.6893 124.381 35.6748 124.374C35.5935 124.347 35.5115 124.32 35.4297 124.293C35.4405 124.288 35.4511 124.282 35.4619 124.276C23.9942 119.869 13.9516 109.16 8.11133 98.8955C7.28805 97.3446 6.54395 95.7809 5.87207 94.2051C5.30025 92.9733 4.76445 91.7144 4.26465 90.4297C1.04998 81.7607 -0.542544 71.3346 0.166016 61.7734C0.19228 61.419 0.222262 61.0658 0.254883 60.7139C0.320073 60.0106 0.398273 59.3127 0.489258 58.6211C0.580223 57.9296 0.683479 57.2442 0.800781 56.5664C0.854321 56.4986 0.908402 56.4332 0.962891 56.3701C1.02408 56.2661 1.09783 56.1561 1.1875 56.0283V55.7969C1.36457 55.7083 1.54216 55.6376 1.71973 55.5801C2.46995 55.1147 3.23685 54.7295 4.0498 54.3545C4.41434 54.1819 4.77872 54.0089 5.1543 53.8311C5.21568 53.8107 5.2755 53.7924 5.33301 53.7744C5.50415 53.6956 5.67682 53.6166 5.85156 53.5361C8.85004 52.131 11.807 50.6544 14.7471 49.1406C15.2469 48.6761 15.5282 48.5353 15.915 48.5371C16.6842 48.1381 17.451 47.734 18.2188 47.3311C18.3466 47.1731 18.5178 47.0555 18.8164 46.8496C19.0619 46.7655 19.2748 46.7089 19.4707 46.6758C19.4833 46.6691 19.4962 46.6629 19.5088 46.6562C19.7997 46.5042 20.0918 46.3546 20.3838 46.2051C20.6128 46.04 20.7939 45.8464 21.1963 45.4072H21.9658C21.8058 47.6768 21.6378 49.942 21.3838 52.2031C21.1606 54.2266 20.9894 56.2809 20.8818 58.3525C20.828 59.3885 20.7904 60.4288 20.7695 61.4717C20.7487 62.5145 20.745 63.56 20.7598 64.6064C20.7783 65.9146 20.8254 67.2243 20.9043 68.5322C20.9359 69.0554 20.9728 69.5782 21.0146 70.1006C21.0565 70.6233 21.1038 71.1455 21.1562 71.667C21.3135 73.2305 21.5187 74.7877 21.7773 76.333C21.9498 77.3633 22.1463 78.3882 22.3672 79.4062C22.4776 79.9152 22.5938 80.4225 22.7168 80.9277C22.8399 81.4333 22.9694 81.937 23.1055 82.4385C23.2414 82.9394 23.384 83.4382 23.5332 83.9346C23.6079 84.1829 23.6847 84.4306 23.7627 84.6777C24.1529 85.9134 24.5855 87.1336 25.0635 88.335C25.4459 89.2961 25.8572 90.2452 26.2988 91.1807C27.4028 93.5191 28.6957 95.772 30.1992 97.9131C30.3495 98.1271 30.5018 98.34 30.6562 98.5518C30.9655 98.9756 31.283 99.3951 31.6094 99.8096C32.1118 100.405 32.6172 100.998 33.125 101.589C33.3239 101.843 33.5226 102.098 33.7275 102.36C34.0595 102.772 34.4031 103.175 34.7568 103.57C34.9926 103.834 35.2326 104.094 35.4775 104.35C36.2127 105.118 36.9888 105.853 37.7998 106.556C38.4754 107.141 39.175 107.704 39.8965 108.244C40.4737 108.676 41.0649 109.094 41.668 109.497C41.9697 109.699 42.2744 109.897 42.582 110.092C43.5045 110.676 44.4525 111.227 45.4209 111.747C46.0663 112.094 46.7209 112.426 47.3828 112.744C49.369 113.7 51.4223 114.529 53.501 115.235C56.2727 116.177 59.0892 116.899 61.8506 117.408C62.5408 117.536 63.2274 117.65 63.9092 117.751C64.1617 117.771 64.3515 117.786 64.5078 117.796C64.8205 117.816 65.0007 117.816 65.2891 117.796C65.3206 117.794 65.3533 117.79 65.3877 117.787C65.6515 117.68 65.9336 117.512 66.3545 117.248C66.4089 117.19 66.4583 117.135 66.5049 117.075C66.658 116.88 66.7928 116.649 67.0605 116.188C67.2901 115.835 67.5194 115.482 67.7559 115.119C68.0022 114.731 68.2486 114.342 68.502 113.942C68.5093 113.929 68.5171 113.916 68.5244 113.903C69.1177 112.979 69.7365 112.071 70.3525 111.161C70.6784 110.67 71.0037 110.178 71.3291 109.687C71.4215 109.548 71.5155 109.41 71.6084 109.271C72.4453 107.8 72.7079 107.341 73.1436 107.021C73.2825 106.821 73.4209 106.619 73.5605 106.419C73.7556 106.138 73.9504 105.857 74.1514 105.568C74.5313 105.024 74.9129 104.48 75.2959 103.938C76.2693 102.689 76.2692 102.689 76.6055 101.204C77.245 100.561 77.8867 99.9202 78.5293 99.2803C79.1499 98.4542 79.7477 97.6291 80.333 96.7793C80.5267 96.5032 80.7228 96.2286 80.918 95.9541C81.2029 95.4741 81.5541 95.0027 81.9707 94.4697C82.0752 94.3344 82.1792 94.1987 82.2852 94.0615C83.0119 93.0723 83.7508 92.0926 84.5049 91.1201C84.7883 90.7078 85.1092 90.3129 85.4365 89.9121C86.1223 89.0176 86.7997 88.1168 87.4678 87.208C87.677 86.9245 87.886 86.6408 88.1016 86.3486C88.5128 85.7901 88.922 85.2295 89.3291 84.668C89.5969 84.3053 89.8728 83.9485 90.1523 83.5947C90.1784 83.5574 90.2054 83.5208 90.2314 83.4834C90.4179 83.2554 90.6037 83.0268 90.7949 82.793C90.811 82.7731 90.8276 82.7533 90.8438 82.7334H91.6133C91.6986 82.5296 91.7842 82.3252 91.8721 82.1152C92.5637 80.8685 93.4741 79.837 94.4033 78.7646C94.5931 78.5435 94.783 78.3225 94.9785 78.0947C95.3539 77.6575 95.7299 77.2204 96.1064 76.7842C96.235 76.6347 96.3615 76.4831 96.4893 76.333C96.5941 76.2086 96.6986 76.0839 96.8027 75.959C97.331 75.3191 97.8532 74.6737 98.374 74.0273C99.5575 72.5729 100.788 71.1704 102.047 69.7861C102.323 69.2303 102.714 68.7651 103.262 68.1934C103.643 67.7921 103.643 67.7922 104.031 67.3828C104.298 67.1073 104.565 66.8317 104.84 66.5479C104.9 66.4844 104.951 66.4299 104.996 66.3828C105.153 66.1888 105.31 65.9943 105.469 65.8018H105.551C105.578 65.773 105.608 65.7417 105.64 65.708C105.716 65.6282 105.792 65.5484 105.868 65.4688C105.862 65.4517 105.857 65.4341 105.852 65.417C106.16 65.1088 106.467 64.8002 106.776 64.4912C107.617 63.5556 108.468 62.629 109.327 61.71C109.323 61.665 109.318 61.6182 109.313 61.5693C109.738 61.1786 110.054 60.8865 110.307 60.6689C110.621 60.3372 110.936 60.0068 111.252 59.6768C111.249 59.6666 111.246 59.656 111.242 59.6455C111.84 59.0363 112.441 58.4298 113.041 57.8223C113.952 56.8863 114.868 55.955 115.786 55.0273C116.051 54.7579 116.315 54.4886 116.588 54.2109C116.834 53.9647 117.08 53.7185 117.333 53.4648C117.55 53.2461 117.767 53.0271 117.991 52.8018C118.446 52.4229 118.532 52.3535 118.958 52.3398C119.058 52.3353 119.175 52.334 119.319 52.334C119.32 52.3328 119.321 52.3313 119.322 52.3301C119.449 51.9505 119.575 51.5707 119.705 51.1797H120.477V50.4102C120.987 49.8948 120.987 49.894 121.727 49.2793C123.094 48.1205 124.411 46.9219 125.719 45.6963C126.151 45.2954 126.588 44.9016 127.028 44.5146C128.534 43.1248 128.796 42.896 129.385 42.5293C130.09 41.9573 130.805 41.3957 131.528 40.8379C131.769 40.6518 132.007 40.4617 132.245 40.2734L132.246 40.2715C132.439 40.0429 132.645 39.827 132.863 39.6182C132.999 39.4888 133.139 39.3622 133.282 39.2363C133.569 38.9847 133.872 38.7371 134.185 38.4805C134.405 38.2969 134.625 38.1129 134.853 37.9238C135.16 37.6707 135.468 37.4186 135.778 37.1689C136.192 36.8352 136.607 36.5044 137.024 36.1758C137.024 36.1746 137.024 36.1731 137.023 36.1719C137.445 35.8384 137.87 35.5105 138.298 35.1855C138.534 35.0025 138.772 34.8204 139.016 34.6318C139.022 34.6285 139.027 34.6244 139.033 34.6211C139.205 34.4905 139.378 34.3614 139.55 34.2314C142.035 32.2433 144.592 30.3343 147.2 28.4912C147.255 28.4529 147.312 28.4105 147.378 28.3662C149.639 26.772 151.939 25.2274 154.264 23.7246C154.957 23.0741 155.847 22.6245 156.771 22.0303C157.217 21.7305 157.217 21.7296 157.672 21.4238C157.96 21.2368 158.25 21.0501 158.547 20.8574C158.942 20.5997 158.942 20.599 159.345 20.3359C159.593 20.2306 159.806 20.161 160.002 20.1221C161.218 19.3791 162.439 18.6462 163.661 17.9209C163.685 17.9067 163.709 17.8921 163.732 17.8779C164.702 17.3001 165.676 16.7278 166.652 16.1611C166.954 15.9848 167.256 15.8086 167.566 15.627C168.068 15.3355 168.571 15.0474 169.077 14.7617C169.953 13.9102 171.222 13.4814 172.418 12.8701C173.087 12.5399 173.757 12.2128 174.431 11.8906C174.528 11.8413 174.625 11.7932 174.723 11.7441C175.672 11.2651 176.627 10.7966 177.588 10.3398C178.419 9.94511 179.254 9.55994 180.094 9.18262C180.5 8.99992 180.907 8.81814 181.315 8.63965C181.736 8.45576 182.158 8.27504 182.581 8.0957C183.105 7.87338 183.63 7.65365 184.157 7.43848C185.14 7.03708 186.128 6.64815 187.121 6.27246C187.532 6.11691 187.944 5.96351 188.356 5.8125C188.489 5.75889 188.622 5.70477 188.755 5.65137C189.032 5.53742 189.31 5.42404 189.596 5.30664C190.798 4.83862 191.236 4.66707 191.63 4.66797C192.025 4.53645 192.42 4.40746 192.816 4.28027V4.23242C193.221 4.12089 193.626 4.00974 194.03 3.89844C196.43 3.15725 198.85 2.49671 201.285 1.9248C201.579 1.85582 201.872 1.78592 202.175 1.71484C205.497 0.970443 209.293 0.376196 213.053 0.373047ZM196.666 148.921C196.012 149.072 195.372 149.244 194.743 149.434V149.689C194.395 149.819 194.048 149.95 193.689 150.084C193.236 150.256 192.782 150.427 192.314 150.604C191.864 150.773 191.412 150.943 190.947 151.118C189.708 151.581 189.707 151.582 188.586 152.384C188.383 152.349 188.229 152.321 188.103 152.298C186.811 153.03 185.567 153.839 184.358 154.709C183.853 155.589 183.214 156.159 182.288 156.857C181.991 157.085 181.694 157.312 181.389 157.546C180.748 157.99 180.12 158.357 179.441 158.695C178.445 159.584 177.458 160.5 176.479 161.439C175.922 161.971 175.359 162.497 174.796 163.021C174.607 163.202 174.42 163.386 174.233 163.57L174.353 163.928C174.093 164.207 173.832 164.485 173.564 164.772C173.05 165.33 173.05 165.331 172.524 165.9C172.185 166.266 171.846 166.633 171.496 167.01C171.278 167.263 171.075 167.508 170.88 167.751C170.883 167.759 170.886 167.767 170.889 167.775C170.532 168.477 170.533 168.477 169.999 169.194C169.826 169.434 169.653 169.674 169.475 169.921C169.307 170.101 169.139 170.28 168.967 170.466C168.966 170.467 168.966 170.469 168.965 170.47H168.316C166.241 173.346 164.447 176.429 162.989 179.657C162.825 180.815 162.745 180.975 162.418 181.629H162.148C161.506 183.228 160.945 184.858 160.475 186.514C160.413 187.797 160.249 189.044 159.99 190.358C159.896 190.852 159.804 191.346 159.707 191.854C159.515 192.548 159.324 193.064 159.047 193.551C159.026 193.718 159.007 193.886 158.988 194.054C159.089 194.078 159.186 194.097 159.281 194.116C159.454 194.005 159.628 193.894 159.801 193.782C159.776 193.708 159.752 193.633 159.727 193.558C160.579 192.989 160.802 192.841 161.199 192.86C164.112 190.906 166.988 188.777 169.797 186.518C169.788 186.349 169.764 186.138 169.732 185.861C170.137 185.838 170.138 185.838 170.551 185.813C170.609 185.796 170.665 185.775 170.721 185.756C170.648 185.537 170.575 185.316 170.5 185.092C170.962 184.694 171.119 184.561 171.416 184.354C171.772 184.066 172.129 183.778 172.496 183.481C173.052 183.033 173.052 183.032 173.619 182.574C174.696 181.66 175.674 180.717 176.657 179.705C176.9 179.786 177.142 179.866 177.388 179.948C179.176 178.287 180.919 176.584 182.608 174.854L182.43 174.317C182.704 174.048 182.978 173.778 183.261 173.5C185.178 171.604 187.058 169.703 188.803 167.644C189.347 167.017 189.917 166.431 190.511 165.852C190.566 165.879 190.621 165.906 190.676 165.934C190.691 165.917 190.706 165.9 190.721 165.883C190.794 165.803 190.866 165.723 190.938 165.645C190.929 165.491 190.913 165.308 190.892 165.082C191.549 164.644 191.834 164.458 192.098 164.377C193.442 162.905 194.42 161.806 195.188 160.81C195.445 159.31 196.081 158.264 197.049 157.002H197.407C198.013 155.574 198.605 153.793 199.479 151.157C199.44 150.8 199.4 150.443 199.359 150.075C198.852 149.821 198.344 149.567 197.821 149.306C197.695 149.432 197.568 149.56 197.438 149.69L197.437 149.689L197.436 149.69L196.666 148.921ZM199.093 97.2881C195.231 97.7251 191.52 98.5096 187.957 99.8086C185.464 100.799 183.083 101.994 180.725 103.33C180.417 103.522 180.11 103.719 179.805 103.922C179.174 104.305 178.867 104.49 178.604 104.561C178.005 104.916 177.413 105.278 176.827 105.649C176.771 105.707 176.715 105.764 176.66 105.822L176.613 105.799C176.047 106.232 175.451 106.591 174.809 106.977C174.79 106.988 174.771 107 174.752 107.012C172.104 108.806 169.563 110.742 167.041 112.748C166.662 113.052 166.283 113.355 165.893 113.668C164.716 114.618 163.56 115.591 162.42 116.58V116.597C162.411 116.599 162.402 116.6 162.394 116.603C162.1 116.858 161.806 117.113 161.515 117.371C161.38 117.574 161.226 117.741 161.032 117.902C160.67 118.265 160.234 118.586 159.692 119.009C159.151 119.504 158.612 120.002 158.076 120.505C157.668 120.88 157.668 120.88 157.252 121.263C157.015 121.486 156.777 121.709 156.532 121.938C156.317 122.08 156.102 122.223 155.881 122.369C155.778 122.335 155.675 122.3 155.572 122.266C155.264 122.543 154.958 122.824 154.65 123.103C154.674 123.114 154.698 123.127 154.722 123.139C153.452 124.409 152.181 125.678 150.873 126.986C150.774 126.953 150.675 126.92 150.575 126.887C150.437 127.026 150.285 127.183 150.107 127.363V127.756C149.975 127.792 149.847 127.826 149.722 127.857V128.52L149.726 128.525C149.239 128.968 148.748 129.409 148.258 129.849C147.986 130.094 147.713 130.34 147.433 130.593C146.714 131.166 146.651 131.212 145.763 131.511C144.709 132.629 143.742 133.854 142.798 134.956C142.51 135.284 142.219 135.607 141.927 135.93C141.959 136.026 141.992 136.124 142.024 136.222C141.755 136.51 141.485 136.799 141.207 137.097C139.847 138.56 138.521 140.033 137.243 141.555L137.407 141.609C136.77 142.31 136.132 143.011 135.49 143.717C135.444 143.776 135.397 143.836 135.351 143.896C134.788 144.595 134.207 145.224 133.559 145.843C133.527 145.827 133.496 145.811 133.465 145.795C133.061 146.318 132.663 146.844 132.271 147.372C132.315 147.502 132.359 147.633 132.403 147.766C131.848 148.664 131.284 149.479 130.647 150.315C130.29 150.798 129.933 151.281 129.576 151.764C129.313 152.117 129.313 152.118 129.045 152.479C128.206 153.633 127.448 154.838 126.691 156.048C126.471 156.329 126.471 156.329 126.246 156.616H126.162C126.093 156.734 126.021 156.85 125.952 156.968C125.767 157.282 125.579 157.595 125.391 157.907C125.415 158.061 125.441 158.257 125.476 158.541C124.937 159.661 124.937 159.661 124.177 160.874C123.143 162.526 123.142 162.526 122.396 164.313C122.113 164.408 121.83 164.502 121.542 164.598C121.39 164.884 121.239 165.175 121.088 165.467H121.248C121.047 167.475 120.398 169.156 119.324 170.854L118.555 171.239C118.659 170.882 118.755 170.556 118.842 170.258C118.178 171.867 117.614 173.483 117.222 175.045C117.63 175.721 117.798 176.161 117.604 177.065C117.488 177.333 117.371 177.601 117.252 177.877C117.138 178.149 117.024 178.42 116.906 178.7C116.814 178.904 116.723 179.108 116.628 179.317V179.32C118.086 179.096 119.482 178.817 120.857 178.454V178.166C122.049 177.605 123.019 177.402 124.205 177.384C124.34 177.333 124.477 177.282 124.612 177.229C124.954 177.096 125.296 176.964 125.647 176.827C125.849 176.747 126.049 176.664 126.25 176.583V176.241C127.242 175.779 128.236 175.323 129.232 174.87C129.513 174.738 129.794 174.607 130.083 174.472C130.356 174.349 130.629 174.226 130.91 174.1C131.285 173.927 131.285 173.927 131.667 173.751C132.136 173.622 132.502 173.6 132.87 173.648C134.899 172.668 136.895 171.628 138.861 170.538C139.716 169.679 140.642 169.131 141.737 168.521C143.931 167.269 146.028 165.908 148.119 164.491C148.289 164.376 148.46 164.262 148.631 164.147C150.376 162.28 150.96 161.859 151.964 162.037C151.986 162.026 152.009 162.015 152.031 162.004C152.111 162.03 152.191 162.056 152.271 162.083C152.461 161.949 152.651 161.814 152.841 161.68C152.83 161.552 152.815 161.405 152.797 161.234C153.494 160.561 153.495 160.561 154.336 160.08C154.502 160.135 154.669 160.19 154.836 160.246C154.956 160.159 155.076 160.072 155.196 159.984C156.398 158.784 157.659 157.717 159.032 156.688C159.479 156.349 159.925 156.009 160.371 155.669C160.699 155.42 160.699 155.42 161.033 155.166C161.179 155.054 161.324 154.941 161.47 154.828C162.566 153.976 163.644 153.102 164.723 152.228C164.838 152.137 164.936 152.06 165.023 151.991C166.232 150.998 167.429 149.99 168.62 148.975C169.968 147.827 171.335 146.708 172.717 145.601C172.878 145.47 173.037 145.337 173.195 145.204V145.072C173.262 145.068 173.317 145.064 173.365 145.062C174.344 144.235 175.276 143.377 176.183 142.479C176.211 142.446 176.241 142.413 176.27 142.379C176.273 142.38 176.277 142.381 176.28 142.382C176.62 142.044 176.957 141.703 177.291 141.354C178.052 140.601 178.827 139.903 179.637 139.205C181.356 137.713 182.968 136.127 184.573 134.514C184.849 134.24 185.124 133.966 185.408 133.684C186.789 132.301 188.115 130.885 189.402 129.424L189.359 129.295C189.9 128.424 190.589 127.748 191.283 126.986L191.444 127.04C191.649 126.797 191.852 126.554 192.056 126.311C192.054 126.28 192.053 126.249 192.051 126.217C192.507 125.701 192.735 125.441 192.975 125.201C193.554 124.498 194.128 123.791 194.694 123.078C194.939 122.651 195.232 122.234 195.577 121.773C195.819 121.449 196.061 121.124 196.311 120.789C196.564 120.453 196.818 120.117 197.079 119.771C197.198 119.612 197.317 119.452 197.438 119.291V119.29C197.905 118.467 197.906 118.467 198.568 117.655C198.786 117.383 199.003 117.111 199.228 116.831C199.399 116.627 199.57 116.422 199.746 116.212L199.747 116.214L199.749 116.212C199.75 116.213 199.75 116.215 199.75 116.217C199.901 115.998 200.052 115.779 200.204 115.562C201.526 113.67 203.007 111.497 204.158 109.193C204.107 109.107 204.047 109.011 203.979 108.9C204.181 108.698 204.383 108.495 204.59 108.288C205.635 105.98 206.295 103.564 206.097 101.186C205.793 99.9913 205.279 99.3213 204.367 98.5107C202.778 97.612 200.961 97.2847 199.093 97.2881ZM198.975 150.46L197.82 150.075L198.205 149.69L198.975 150.46ZM182.043 136.606H181.273V135.837L182.043 136.606ZM210.594 15.3477C206.243 13.015 200.974 12.7495 195.87 13.4062L195.901 13.4688C195.266 13.5473 194.63 13.6187 193.994 13.6895C191.647 14.0924 189.364 14.6635 187.255 15.2891C184.971 16.0033 182.735 16.8279 180.508 17.7012C180.186 17.8266 179.865 17.9528 179.533 18.082C178.036 18.6744 176.558 19.3026 175.097 19.9629L175.12 20.0098C174.743 20.1963 174.365 20.383 173.976 20.5752C166.593 24.2109 166.593 24.2109 159.594 28.5215C159.24 28.7596 158.904 28.9617 158.573 29.1387V29.2451C158.472 29.2704 158.37 29.2949 158.269 29.3203C157.64 29.7332 157.015 30.1521 156.392 30.5742C156.163 30.8355 155.857 31.0476 155.357 31.3867C155.089 31.5714 154.821 31.757 154.545 31.9473C154.256 32.1429 153.966 32.3385 153.668 32.54C153.065 32.9571 152.462 33.3753 151.859 33.7939C151.561 34.0013 151.262 34.2082 150.954 34.4219C150.847 34.4969 150.741 34.5729 150.635 34.6484C149.805 35.2608 148.98 35.8808 148.159 36.5059L148.185 36.5566C147.367 37.1908 146.55 37.8244 145.731 38.457C145.383 38.7274 145.383 38.7274 145.028 39.0029C144.158 39.6749 143.717 40.0139 143.392 40.2373C143.322 40.2934 143.251 40.3491 143.182 40.4053C143.107 40.4645 143.042 40.5152 142.985 40.5605C141.349 41.8888 139.744 43.2414 138.164 44.627C137.871 44.8875 137.578 45.1482 137.284 45.4072C136.837 45.8055 136.391 46.2063 135.947 46.6104C135.408 47.1053 134.869 47.6022 134.331 48.1016C134.195 48.2273 134.059 48.3519 133.923 48.4775L133.946 48.4854C133.486 48.9029 133.024 49.3173 132.561 49.7314C132.437 49.845 132.314 49.9598 132.19 50.0732C131.954 50.2917 131.841 50.3962 131.721 50.5068C130.185 51.9472 130.171 51.9473 129.331 51.9473L129.328 51.9492V52.7188C128.942 52.8152 128.752 52.8624 128.557 52.9111C128.557 53.1014 128.558 53.2927 128.558 53.4883C128.272 53.5915 127.986 53.6955 127.691 53.8018C127.593 53.8444 127.496 53.8878 127.402 53.9316V54.6426C127.067 54.7899 127.067 54.7901 126.725 54.9404C125.776 55.4605 125.152 56.0349 124.396 56.8076C124.156 57.0507 123.915 57.2935 123.667 57.5439C123.087 58.167 122.523 58.7991 121.963 59.4375C121.972 59.5967 121.99 59.7892 122.016 60.0303H121.454C120.891 61.1726 120.16 62.0435 119.276 63.0127C118.998 63.3202 118.719 63.6275 118.432 63.9443C118.218 64.1765 118.005 64.4093 117.785 64.6484L117.478 64.3408C117.419 64.4027 117.361 64.4654 117.302 64.5273C116.903 64.9501 116.507 65.3753 116.113 65.8018C116.146 65.9003 116.186 66.0193 116.242 66.1865C116.225 66.2048 116.208 66.223 116.191 66.2412C115.939 66.5153 115.687 66.7899 115.427 67.0723C115.194 67.3261 114.961 67.5792 114.729 67.833C114.014 68.6227 113.309 69.418 112.614 70.2217C112.27 70.6522 111.941 71.0972 111.623 71.5742C111.581 71.5603 111.54 71.5461 111.498 71.5322C110.945 72.1896 110.397 72.8535 109.855 73.5254C109.014 74.5519 108.152 75.5548 107.279 76.5547C105.531 78.5621 103.879 80.6247 102.273 82.7334C101.937 83.179 101.602 83.6268 101.271 84.0781C100.991 84.4588 100.708 84.8359 100.423 85.21C100.386 85.2602 100.348 85.3101 100.312 85.3604C99.6634 86.2416 99.0101 87.119 98.3564 87.9961C98.15 88.2737 97.9448 88.552 97.7393 88.8301L97.7695 88.8906C97.5743 89.1137 97.4528 89.2489 97.3418 89.3662C94.8498 92.7516 92.4252 96.1766 90.0752 99.665C89.8065 100.062 89.8065 100.062 89.5322 100.468C89.1959 100.965 88.8625 101.465 88.5283 101.964L88.5332 101.974C88.5226 101.984 88.5116 101.994 88.501 102.005C86.5313 104.947 84.5973 107.911 82.6924 110.896C82.4824 111.225 82.272 111.553 82.0557 111.892C80.5869 114.205 79.1675 116.546 77.7607 118.896L77.7637 118.905C77.2105 119.939 77.2105 119.939 76.6094 120.829C89.178 121.082 89.179 121.083 101.673 119.928C101.758 119.915 101.843 119.904 101.928 119.892C103.212 119.649 104.551 119.607 105.877 119.63C106.644 119.481 107.408 119.324 108.17 119.159C108.063 119.094 107.94 119.015 107.773 118.906C108.865 118.633 109.904 118.54 110.969 118.516C111.963 118.274 112.951 118.019 113.936 117.751C114.15 117.589 114.373 117.455 114.605 117.34C115.073 117.08 115.585 116.924 116.387 116.717C116.747 116.62 117.107 116.523 117.479 116.424C117.599 116.4 117.717 116.378 117.835 116.358C119.757 115.821 121.873 115.2 124.08 114.491C125.699 113.89 127.305 113.257 128.896 112.591C129.733 111.999 130.584 111.523 131.554 111.076C132.092 110.825 132.093 110.824 132.643 110.567C133.024 110.39 133.406 110.214 133.8 110.031C136.726 108.654 139.609 107.231 142.434 105.654C142.848 105.423 142.849 105.423 143.271 105.188C144.475 104.507 145.62 103.81 146.737 102.995C147.187 102.725 147.446 102.57 147.659 102.492C147.705 102.447 147.752 102.404 147.797 102.358C147.933 102.387 148.046 102.414 148.144 102.435C148.245 102.444 148.359 102.462 148.499 102.487C149.109 102.114 149.718 101.738 150.324 101.356C151.247 100.362 152.267 99.5629 153.381 98.7754C153.67 98.5706 153.96 98.3653 154.258 98.1543C154.522 98.0265 154.705 97.9383 154.876 97.8887C155.645 97.3825 156.411 96.8719 157.174 96.3574C157.304 96.2696 157.433 96.1809 157.562 96.0928C158.411 95.3744 159.335 94.7374 160.3 94.2002C160.962 93.7333 161.623 93.2635 162.279 92.7871C162.557 92.5861 162.834 92.3848 163.119 92.1777C163.198 92.12 163.278 92.0618 163.357 92.0039C165.533 90.3941 167.663 88.7226 169.733 86.9668C170.31 86.4899 170.31 86.4895 170.898 86.0029C175.542 82.1497 179.889 77.9954 184.163 73.7393C184.591 73.314 184.592 73.3138 185.028 72.8799C185.396 72.5116 185.757 72.1391 186.116 71.7656C188.511 69.2646 190.72 66.6357 192.893 63.9258C193.054 63.7373 193.215 63.5486 193.379 63.3574C193.449 63.2748 193.518 63.1914 193.59 63.1084H193.795C195.988 60.4805 198.084 57.7849 200.133 55.0273C200.389 54.6864 200.39 54.6867 200.651 54.3389C202.946 51.2805 205.534 47.6997 207.87 43.8447C207.956 43.1642 208.178 42.7041 208.598 41.9443L208.846 42.1924C208.93 42.045 209.014 41.8971 209.098 41.749C209.008 41.1955 209.138 40.817 209.534 39.9209C209.803 39.4232 210.076 38.9271 210.351 38.4326C212.114 35.1108 213.27 31.6792 214.366 28.0908H214.465C214.897 25.7551 215.027 23.4322 214.756 21.165C214.273 19.4836 213.57 18.0544 212.475 16.877C212.319 16.7458 212.162 16.6138 212.002 16.4795C211.816 16.296 211.68 16.1598 211.571 16.0391C211.269 15.7958 210.945 15.5638 210.594 15.3477ZM219.373 0.769531L218.219 0.384766L218.604 0L219.373 0.769531Z" fill="url(#paint0_linear_8500_129761)" fill-opacity="0.06"/>
</g>
<defs>
<filter id="filter0_i_8500_129761" x="0" y="0" width="231.373" height="239.069" filterUnits="userSpaceOnUse" color-interpolation-filters="sRGB">
<feFlood flood-opacity="0" result="BackgroundImageFix"/>
<feBlend mode="normal" in="SourceGraphic" in2="BackgroundImageFix" result="shape"/>
<feColorMatrix in="SourceAlpha" type="matrix" values="0 0 0 0 0 0 0 0 0 0 0 0 0 0 0 0 0 0 127 0" result="hardAlpha"/>
<feOffset dy="4"/>
<feGaussianBlur stdDeviation="2"/>
<feComposite in2="hardAlpha" operator="arithmetic" k2="-1" k3="1"/>
<feColorMatrix type="matrix" values="0 0 0 0 1 0 0 0 0 1 0 0 0 0 1 0 0 0 0.3 0"/>
<feBlend mode="normal" in2="shape" result="effect1_innerShadow_8500_129761"/>
</filter>
<linearGradient id="paint0_linear_8500_129761" x1="13.0001" y1="58.4999" x2="179.5" y2="235.001" gradientUnits="userSpaceOnUse">
<stop stop-color="#FDA748"/>
<stop offset="1" stop-color="#C53955"/>
</linearGradient>
</defs>
</svg>
